P3
20 20
255
0 0 0 12 0 0 25 0 0 38 0 0 51 0 0 63 0 0 76 0 0 89 0 0 102 0 0 114 0 0
127 0 0 140 0 0 153 0 0 165 0 0 178 0 0 191 0 0 204 0 0 216 0 0 229 0
0 242 0 0
0 12 0 12 12 0 25 12 0 38 12 0 51 12 0 63 12 0 76 12 0 89 12 0 102 12
0 114 12 0 127 12 0 140 12 0 153 12 0 165 12 0 178 12 0 191 12 0 204
12 0 216 12 0 229 12 0 242 12 0
0 25 0 12 25 0 25 25 0 38 25 0 51 25 0 63 25 0 76 25 0 89 25 0 102 25
0 114 25 0 127 25 0 140 25 0 153 25 0 165 25 0 178 25 0 191 25 0 204
25 0 216 25 0 229 25 0 242 25 0
0 38 0 12 38 0 25 38 0 38 38 0 51 38 0 63 38 0 76 38 0 89 38 0 102 38
0 114 38 0 127 38 0 140 38 0 153 38 0 165 38 0 178 38 0 191 38 0 204
38 0 216 38 0 229 38 0 242 38 0
0 51 0 12 51 0 25 51 0 38 51 0 51 51 0 63 51 0 76 51 0 89 51 0 102 51
0 114 51 0 127 51 0 140 51 0 153 51 0 165 51 0 178 51 0 191 51 0 204
51 0 216 51 0 229 51 0 242 51 0
0 63 0 12 63 0 25 63 0 38 63 0 51 63 0 63 63 0 76 63 0 89 63 0 102 63
0 114 63 0 127 63 0 140 63 0 153 63 0 165 63 0 178 63 0 191 63 0 204
63 0 216 63 0 229 63 0 242 63 0
0 76 0 12 76 0 25 76 0 38 76 0 51 76 0 63 76 0 76 76 0 89 76 0 102 76
0 114 76 0 127 76 0 140 76 0 153 76 0 165 76 0 178 76 0 191 76 0 204
76 0 216 76 0 229 76 0 242 76 0
0 89 0 12 89 0 25 89 0 38 89 0 51 89 0 63 89 0 76 89 0 89 89 0 102 89
0 114 89 0 127 89 0 140 89 0 153 89 0 165 89 0 178 89 0 191 89 0 204
89 0 216 89 0 229 89 0 242 89 0
0 102 0 12 102 0 25 102 0 38 102 0 51 102 0 63 102 0 76 102 0 89 102 0
102 102 0 114 102 0 127 102 0 140 102 0 153 102 0 165 102 0 178 102 0
191 102 0 204 102 0 216 102 0 229 102 0 242 102 0
0 114 0 12 114 0 25 114 0 38 114 0 51 114 0 63 114 0 76 114 0 89 114 0
102 114 0 114 114 0 127 114 0 140 114 0 153 114 0 165 114 0 178 114 0
191 114 0 204 114 0 216 114 0 229 114 0 242 114 0
0 127 0 12 127 0 25 127 0 38 127 0 51 127 0 63 127 0 76 127 0 89 127 0
102 127 0 114 127 0 127 127 0 140 127 0 153 127 0 165 127 0 178 127 0
191 127 0 204 127 0 216 127 0 229 127 0 242 127 0
0 140 0 12 140 0 25 140 0 38 140 0 51 140 0 63 140 0 76 140 0 89 140 0
102 140 0 114 140 0 127 140 0 140 140 0 153 140 0 165 140 0 178 140 0
191 140 0 204 140 0 216 140 0 229 140 0 242 140 0
0 153 0 12 153 0 25 153 0 38 153 0 51 153 0 63 153 0 76 153 0 89 153 0
102 153 0 114 153 0 127 153 0 140 153 0 153 153 0 165 153 0 178 153 0
191 153 0 204 153 0 216 153 0 229 153 0 242 153 0
0 165 0 12 165 0 25 165 0 38 165 0 51 165 0 63 165 0 76 165 0 89 165 0
102 165 0 114 165 0 127 165 0 140 165 0 153 165 0 165 165 0 178 165 0
191 165 0 204 165 0 216 165 0 229 165 0 242 165 0
0 178 0 12 178 0 25 178 0 38 178 0 51 178 0 63 178 0 76 178 0 89 178 0
102 178 0 114 178 0 127 178 0 140 178 0 153 178 0 165 178 0 178 178 0
191 178 0 204 178 0 216 178 0 229 178 0 242 178 0
0 191 0 12 191 0 25 191 0 38 191 0 51 191 0 63 191 0 76 191 0 89 191 0
102 191 0 114 191 0 127 191 0 140 191 0 153 191 0 165 191 0 178 191 0
191 191 0 204 191 0 216 191 0 229 191 0 242 191 0
0 204 0 12 204 0 25 204 0 38 204 0 51 204 0 63 204 0 76 204 0 89 204 0
102 204 0 114 204 0 127 204 0 140 204 0 153 204 0 165 204 0 178 204 0
191 204 0 204 204 0 216 204 0 229 204 0 242 204 0
0 216 0 12 216 0 25 216 0 38 216 0 51 216 0 63 216 0 76 216 0 89 216 0
102 216 0 114 216 0 127 216 0 140 216 0 153 216 0 165 216 0 178 216 0
191 216 0 204 216 0 216 216 0 229 216 0 242 216 0
0 229 0 12 229 0 25 229 0 38 229 0 51 229 0 63 229 0 76 229 0 89 229 0
102 229 0 114 229 0 127 229 0 140 229 0 153 229 0 165 229 0 178 229 0
191 229 0 204 229 0 216 229 0 229 229 0 242 229 0
0 242 0 12 242 0 25 242 0 38 242 0 51 242 0 63 242 0 76 242 0 89 242 0
102 242 0 114 242 0 127 242 0 140 242 0 153 242 0 165 242 0 178 242 0
191 242 0 204 242 0 216 242 0 229 242 0 242 242 0
